# xmcd
#
# Track frame offsets:
#	150
#	21535
#	45182
#	81735
#	103135
#	128235
#	150452
#	174210
#	204495
#	234652
#	258695
#	277600
#
# Disc length: 4104 seconds
#
# Revision: 0
# Processed by: cddbd v1.5.2PL0 Copyright (c) Steve Scherf et al.
# Submitted via: EasyCDDAExtractor 10.0.2.1
#
DISCID=9d10060c
DTITLE=Tre and The Blueknights - Heart And Soul
DYEAR=1990
DGENRE=Blues
TTITLE0=Heart And Soul
TTITLE1=From The Country To The City
TTITLE2=Without You
TTITLE3=O' Pretty Woman
TTITLE4=Are You Watching Over Me
TTITLE5=Blues Knock'n Baby
TTITLE6=Love don't Have No Love For You
TTITLE7=The Blues Is Here To Stay
TTITLE8=I'm A Blues Man Baby
TTITLE9=Somebody To Be In Love With Me
TTITLE10=Heartach
TTITLE11=(2) Live Boogie Blues
EXTD=
EXTT0=
EXTT1=
EXTT2=
EXTT3=
EXTT4=
EXTT5=
EXTT6=
EXTT7=
EXTT8=
EXTT9=
EXTT10=
EXTT11=
PLAYORDER=
